<?xml version="1.0" encoding="UTF-8" standalone="no"?>
<!-- Created with Inkscape (http://www.inkscape.org/) -->

<svg
   xmlns:dc="http://purl.org/dc/elements/1.1/"
   xmlns:cc="http://creativecommons.org/ns#"
   xmlns:rdf="http://www.w3.org/1999/02/22-rdf-syntax-ns#"
   xmlns:svg="http://www.w3.org/2000/svg"
   xmlns="http://www.w3.org/2000/svg"
   xmlns:xlink="http://www.w3.org/1999/xlink"
   xmlns:sodipodi="http://sodipodi.sourceforge.net/DTD/sodipodi-0.dtd"
   xmlns:inkscape="http://www.inkscape.org/namespaces/inkscape"
   width="744.09448819"
   height="1052.3622047"
   id="svg3430"
   version="1.1"
   inkscape:version="0.48.2 r9819"
   sodipodi:docname="ss_icon.pdf">
  <defs
     id="defs3432">
    <linearGradient
       inkscape:collect="always"
       id="linearGradient5127">
      <stop
         style="stop-color:#ffffff;stop-opacity:1"
         offset="0"
         id="stop5129" />
      <stop
         style="stop-color:#ffffff;stop-opacity:0"
         offset="1"
         id="stop5131" />
    </linearGradient>
    <linearGradient
       id="linearGradient5117">
      <stop
         style="stop-color:#ffffff;stop-opacity:1;"
         offset="0"
         id="stop5119" />
      <stop
         style="stop-color:#000000;stop-opacity:0;"
         offset="1"
         id="stop5121" />
    </linearGradient>
    <linearGradient
       id="linearGradient5105">
      <stop
         id="stop5113"
         offset="0"
         style="stop-color:#ffffff;stop-opacity:0.49803922;" />
      <stop
         style="stop-color:#000000;stop-opacity:0;"
         offset="1"
         id="stop5109" />
    </linearGradient>
    <clipPath
       id="clipPath3470"
       clipPathUnits="userSpaceOnUse">
      <path
         id="path3472"
         d="m 35.832,2574.17 3254.998,0 0,-2568.33797 -3254.998,0 0,2568.33797 z" />
    </clipPath>
    <clipPath
       id="clipPath3454"
       clipPathUnits="userSpaceOnUse">
      <path
         id="path3456"
         d="m 6.66797,5 3323.33003,0 0,2605 -3323.33003,0 0,-2605 z" />
    </clipPath>
    <linearGradient
       inkscape:collect="always"
       xlink:href="#linearGradient5127-4"
       id="linearGradient5133-9"
       x1="250.62045"
       y1="190.70206"
       x2="83.403755"
       y2="190.70206"
       gradientUnits="userSpaceOnUse"
       gradientTransform="matrix(0.27733383,0,0,0.33242548,-249.52805,-599.79968)" />
    <linearGradient
       inkscape:collect="always"
       id="linearGradient5127-4">
      <stop
         style="stop-color:#ffffff;stop-opacity:1"
         offset="0"
         id="stop5129-8" />
      <stop
         style="stop-color:#ffffff;stop-opacity:0"
         offset="1"
         id="stop5131-8" />
    </linearGradient>
    <linearGradient
       inkscape:collect="always"
       xlink:href="#linearGradient5127-4"
       id="linearGradient6687"
       gradientUnits="userSpaceOnUse"
       gradientTransform="matrix(0.30467424,0,0,0.43734971,279.24387,395.59473)"
       x1="250.62045"
       y1="190.70206"
       x2="60.913456"
       y2="190.70206" />
    <linearGradient
       inkscape:collect="always"
       xlink:href="#linearGradient5127"
       id="linearGradient6690"
       gradientUnits="userSpaceOnUse"
       gradientTransform="matrix(0.28160638,0,0,0.33242548,-271.10931,-599.79968)"
       x1="250.62045"
       y1="190.70206"
       x2="172.96089"
       y2="190.70206" />
  </defs>
  <sodipodi:namedview
     id="base"
     pagecolor="#ffffff"
     bordercolor="#666666"
     borderopacity="1.0"
     inkscape:pageopacity="0.0"
     inkscape:pageshadow="2"
     inkscape:zoom="0.7"
     inkscape:cx="-235.44499"
     inkscape:cy="700.3945"
     inkscape:document-units="px"
     inkscape:current-layer="layer1"
     showgrid="false"
     inkscape:window-width="1680"
     inkscape:window-height="988"
     inkscape:window-x="-8"
     inkscape:window-y="-8"
     inkscape:window-maximized="1" />
  <metadata
     id="metadata3435">
    <rdf:RDF>
      <cc:Work
         rdf:about="">
        <dc:format>image/svg+xml</dc:format>
        <dc:type
           rdf:resource="http://purl.org/dc/dcmitype/StillImage" />
        <dc:title></dc:title>
      </cc:Work>
    </rdf:RDF>
  </metadata>
  <g
     inkscape:label="Layer 1"
     inkscape:groupmode="layer"
     id="layer1">
    <g
       id="g6986">
      <rect
         y="428.12509"
         x="177.23572"
         height="200.00011"
         width="203.57144"
         id="rect6821"
         style="fill:#ffffff;fill-opacity:1;stroke:none" />
      <g
         inkscape:export-ydpi="99.915787"
         inkscape:export-xdpi="99.915787"
         id="g6754">
        <rect
           style="fill:#ffffff;fill-opacity:1;stroke:none"
           id="rect6208"
           width="27.274118"
           height="64.270958"
           x="327.33179"
           y="484.25333"
           transform="matrix(0.98281421,0.18459748,-0.18459748,0.98281421,0,0)" />
        <path
           style="opacity:0.50000000000000000;fill:none;stroke:#0064ff;stroke-width:1.72500000000000010;stroke-linecap:round;stroke-linejoin:round;stroke-miterlimit:10;stroke-opacity:1;stroke-dasharray:none"
           d="m 179.52673,512.23503 4.82993,11.76134 4.82993,7.08985 4.82993,-0.66665 4.82994,-6.59035 4.82991,-3.75363 4.82994,-2.33525 4.82992,-1.91886 4.82994,4.17103 4.89204,1.75169 4.82994,-4.00386 4.82993,15.34781 4.82992,43.79226 4.82994,39.03788 4.83007,5.5053 4.82993,-26.10839 4.82992,-40.53913 4.82994,-35.4512 4.82992,-19.68499 4.89161,-9.84351 4.82993,-10.59322 4.82993,-10.00966 4.82993,0.50048 4.82994,8.25797 4.82992,3.67055 4.82993,-0.41741 4.82993,3.67054 4.82993,6.50628 4.82993,-0.25024 4.8916,-7.00676 4.82993,-3.58746 4.82993,1.41836 4.82993,1.25121 4.82993,2.25218 4.82994,5.83863 4.82991,7.17393 4.82994,8.00772 4.82993,12.17876 4.82993,12.92847 4.89234,4.42127 4.82994,-2.41933 4.82992,-1.66762"
           id="path5101"
           inkscape:connector-curvature="0" />
        <path
           style="opacity:0.50000000000000000;fill:none;stroke:#0064ff;stroke-width:1.72500000000000010;stroke-linecap:round;stroke-linejoin:round;stroke-miterlimit:10;stroke-opacity:1;stroke-dasharray:none"
           d="m 179.52673,517.49011 4.82993,-14.09661 4.82993,-8.5923 4.82993,4.83868 4.82994,7.75748 4.82991,0.0831 4.82994,-0.83381 4.82992,11.5942 4.82994,20.9372 4.89204,11.9275 4.82994,-5.17098 4.82993,-6.08988 4.82992,15.8493 4.82994,36.86857 4.83007,26.52561 4.82993,-8.42493 4.82992,-33.03209 4.82994,-32.61446 4.82992,-19.43576 4.89161,-11.51111 4.82993,-9.17485 4.82993,-4.17104 4.82993,-4.33718 4.82994,-13.26279 4.82992,-14.76426 4.82993,-3.8377 4.82993,0.66765 4.82993,-6.8396 4.82993,-9.4261 4.8916,4.33719 4.82993,21.10436 4.82993,19.35168 4.82993,3.75362 4.82993,-3.58646 4.82994,2.5855 4.82991,10.84346 4.82994,7.17392 4.82993,-5.50531 4.82993,-7.257 4.89234,4.50435 4.82994,9.50917 4.82992,1.83477"
           id="path5099"
           inkscape:connector-curvature="0" />
        <path
           style="opacity:0.50000000000000000;fill:none;stroke:#0064ff;stroke-width:1.72500000000000010;stroke-linecap:round;stroke-linejoin:round;stroke-miterlimit:10;stroke-opacity:1;stroke-dasharray:none"
           d="m 179.52673,514.7375 4.82993,6.92368 4.82993,9.00869 4.82993,4.33718 4.82994,-4.17102 4.82991,-5.25507 4.82994,1.83576 4.82992,3.16907 4.82994,-1.58453 4.89204,-2.50242 4.82994,-2.41933 4.82993,5.00483 4.82992,27.94396 4.82994,40.87264 4.83007,17.35035 4.82993,-23.60638 4.82992,-42.45717 4.82994,-30.69663 4.82992,-13.51303 4.89161,-10.76039 4.82993,-15.51496 4.82993,-12.92949 4.82993,-4.08694 4.82994,0.66764 4.82992,-0.75072 4.82993,-0.25024 4.82993,5.42123 4.82993,8.84252 4.82993,6.17197 4.8916,1.91885 4.82993,-0.16716 4.82993,4.08795 4.82993,11.34394 4.82993,6.92368 4.82994,-7.92465 4.82991,-10.76038 4.82994,2.41934 4.82993,15.18064 4.82993,16.76618 4.89234,8.42514 4.82994,0.41739 4.82992,-1.83577"
           id="path5097"
           inkscape:connector-curvature="0" />
        <path
           style="opacity:0.50000000000000000;fill:none;stroke:#0064ff;stroke-width:1.72500000000000010;stroke-linecap:round;stroke-linejoin:round;stroke-miterlimit:10;stroke-opacity:1;stroke-dasharray:none"
           d="m 179.52673,515.82154 4.82993,3.67054 4.82993,4.2541 4.82993,-0.66763 4.82994,-7.84058 4.82991,-8.67536 4.82994,1.25119 4.82992,12.34592 4.82994,9.34202 4.89204,-3.8367 4.82994,-6.75653 4.82993,11.09372 4.82992,35.78453 4.82994,42.12385 4.83007,16.09913 4.82993,-25.35806 4.82992,-44.9596 4.82994,-30.19613 4.82992,-8.84154 4.89161,-3.92079 4.82993,-11.9285 4.82993,-22.02126 4.82993,-23.85602 4.82994,-13.09563 4.82992,3.25314 4.82993,12.17774 4.82993,5.92273 4.82993,-4.00386 4.82993,2.75265 4.8916,19.18551 4.82993,17.5169 4.82993,-2.33624 4.82993,-11.17679 4.82993,4.08694 4.82994,25.02415 4.82991,26.02511 4.82994,7.08985 4.82993,-9.4251 4.82993,-11.59519 4.89234,-2.83574 4.82994,5.33815 4.82992,0.50048"
           id="path5095"
           inkscape:connector-curvature="0" />
        <path
           style="opacity:0.50000000000000000;fill:none;stroke:#0064ff;stroke-width:1.72500000000000010;stroke-linecap:round;stroke-linejoin:round;stroke-miterlimit:10;stroke-opacity:1;stroke-dasharray:none"
           d="m 179.52673,509.14911 4.82993,14.9304 4.82993,-1.75169 4.82993,-0.66664 4.82994,9.84249 4.82991,2.33525 4.82994,-13.26279 4.82992,-13.17872 4.82994,-1.00097 4.89204,6.50628 4.82994,7.34008 4.82993,12.59516 4.82992,27.19325 4.82994,36.7855 4.83007,21.85428 4.82993,-9.92598 4.82992,-32.61527 4.82994,-35.28405 4.82992,-26.69176 4.89161,-15.59906 4.82993,-8.84153 4.82993,-10.76038 4.82993,-7.92465 4.82994,6.25604 4.82992,13.93045 4.82993,1.75168 4.82993,-15.93237 4.82993,-14.59709 4.82993,-0.33332 4.8916,6.67244 4.82993,8.09181 4.82993,11.59418 4.82993,8.09081 4.82993,-8.59128 4.82994,-16.93335 4.82991,-0.91688 4.82994,21.27052 4.82993,27.27633 4.82993,13.17872 4.89234,-9.8425 4.82994,-21.27054 4.82992,-8.5082"
           id="path5093"
           inkscape:connector-curvature="0" />
        <path
           style="opacity:0.50000000000000000;fill:none;stroke:#0064ff;stroke-width:1.72500000000000010;stroke-linecap:round;stroke-linejoin:round;stroke-miterlimit:10;stroke-opacity:1;stroke-dasharray:none"
           d="m 179.52673,495.4689 4.82993,11.59418 4.82993,14.26377 4.82993,6.84061 4.82994,1.6676 4.82991,0.75073 4.82994,-2.66858 4.82992,-2.08601 4.82994,5.42224 4.89204,6.08886 4.82994,-5.5053 4.82993,-8.84154 4.82992,12.67924 4.82994,37.95263 4.83007,32.61526 4.82993,-1.50144 4.82992,-26.27516 4.82994,-26.85992 4.82992,-22.93814 4.89161,-20.18648 4.82993,-11.84443 4.82993,-4.75458 4.82993,-6.08988 4.82994,-16.43185 4.82992,-25.94204 4.82993,-12.42899 4.82993,19.18551 4.82993,30.44638 4.82993,12.76231 4.8916,-9.67633 4.82993,-19.68599 4.82993,-14.76426 4.82993,1.00097 4.82993,23.52269 4.82994,32.61548 4.82991,8.59129 4.82994,-23.77293 4.82993,-24.44059 4.82993,3.75363 4.89234,26.27535 4.82994,19.68599 4.82992,1.7517"
           id="path5091"
           inkscape:connector-curvature="0" />
        <path
           style="opacity:0.50000000000000000;fill:none;stroke:#0064ff;stroke-width:1.72500000000000010;stroke-linecap:round;stroke-linejoin:round;stroke-miterlimit:10;stroke-opacity:1;stroke-dasharray:none"
           d="m 179.52673,516.48918 4.82993,-0.91789 4.82993,2.91982 4.82993,4.25411 4.82994,1.50145 4.82991,-0.16716 4.82994,-1.00096 4.82992,-0.50049 4.82994,1.83577 4.89204,5.42123 4.82994,6.17296 4.82993,5.50531 4.82992,13.2628 4.82994,25.27439 4.83007,22.77198 4.82993,-0.16696 4.82992,-23.77315 4.82994,-30.19513 4.82992,-26.19228 4.89161,-21.77102 4.82993,-13.26279 4.82993,-4.33718 4.82993,-5.08892 4.82994,-8.92461 4.82992,-4.6715 4.82993,1.91884 4.82993,2.41834 4.82993,0.4174 4.82993,-1.91885 4.8916,-3.91978 4.82993,-1.41837 4.82993,8.00773 4.82993,19.35167 4.82993,19.10243 4.82994,4.17003 4.82991,-6.42219 4.82994,-2.66959 4.82993,5.25507 4.82993,8.92562 4.89234,4.33719 4.82994,-3.75362 4.82992,-3.33623"
           id="path5089"
           inkscape:connector-curvature="0" />
        <path
           style="opacity:0.50000000000000000;fill:none;stroke:#0064ff;stroke-width:1.72500000000000010;stroke-linecap:round;stroke-linejoin:round;stroke-miterlimit:10;stroke-opacity:1;stroke-dasharray:none"
           d="m 179.52673,520.91044 4.82993,-1.50144 4.82993,1.91785 4.82993,2.33626 4.82994,1.75168 4.82991,-0.75072 4.82994,-2.50242 4.82992,4.08695 4.82994,10.84346 4.89204,4.58843 4.82994,-3.00289 4.82993,7.17291 4.82992,28.19421 4.82994,31.28019 4.83007,5.67227 4.82993,-24.10685 4.82992,-34.53354 4.82994,-25.27438 4.82992,-11.59419 4.89161,-10.2599 4.82993,-15.4319 4.82993,-10.2599 4.82993,-2.83574 4.82994,-5.17198 4.82992,-9.92558 4.82993,-8.75845 4.82993,-3.92079 4.82993,-0.66763 4.82993,0.0841 4.8916,4.42026 4.82993,13.93044 4.82993,15.93238 4.82993,6.50628 4.82993,-2.33626 4.82994,-0.91688 4.82991,7.50724 4.82994,12.92848 4.82993,10.34398 4.82993,0 4.89234,-11.34494 4.82994,-8.67438 4.82992,6.00581"
           id="path5087"
           inkscape:connector-curvature="0" />
        <path
           style="opacity:0.50000000000000000;fill:none;stroke:#0064ff;stroke-width:1.72500000000000010;stroke-linecap:round;stroke-linejoin:round;stroke-miterlimit:10;stroke-opacity:1;stroke-dasharray:none"
           d="m 179.52673,497.63798 4.82993,2.25217 4.82993,13.84636 4.82993,17.59999 4.82994,5.33915 4.82991,-12.92948 4.82994,-14.76424 4.82992,0.58356 4.82994,6.84061 4.89204,-2.66959 4.82994,-8.25797 4.82993,3.0029 4.82992,28.02705 4.82994,47.62916 4.83007,35.03381 4.82993,-5.58859 4.82992,-34.53332 4.82994,-33.94977 4.82992,-23.10529 4.89161,-15.93238 4.82993,-10.51014 4.82993,-8.50821 4.82993,-13.51304 4.82994,-13.76328 4.82992,2.66957 4.82993,16.6831 4.82993,8.25797 4.82993,-6.25603 4.82993,-8.34205 4.8916,-0.33333 4.82993,6.83961 4.82993,7.17391 4.82993,2.91982 4.82993,-0.75073 4.82994,2.83574 4.82991,10.42706 4.82994,8.09081 4.82993,-3.00289 4.82993,-6.8396 4.89234,0.58355 4.82994,8.50822 4.82992,12.17875"
           id="path5085"
           inkscape:connector-curvature="0" />
        <path
           style="opacity:0.50000000000000000;fill:none;stroke:#0064ff;stroke-width:1.72500000000000010;stroke-linecap:round;stroke-linejoin:round;stroke-miterlimit:10;stroke-opacity:1;stroke-dasharray:none"
           d="m 179.52673,506.56259 4.82993,1.58553 4.82993,9.50918 4.82993,5.42124 4.82994,-1.50146 4.82991,-1.91786 4.82994,5.50532 4.82992,12.09468 4.82994,0.25023 4.89204,-16.93333 4.82994,-8.1739 4.82993,16.84927 4.82992,34.2 4.82994,36.7853 4.83007,16.2657 4.82993,-19.35228 4.82992,-36.11805 4.82994,-20.5198 4.82992,-6.75652 4.89161,-18.43479 4.82993,-31.19611 4.82993,-24.69083 4.82993,-9.84249 4.82994,0.91688 4.82992,7.92466 4.82993,9.7594 4.82993,5.25507 4.82993,0.83381 4.82993,-0.16616 4.8916,-0.75072 4.82993,-2.91982 4.82993,-0.91789 4.82993,6.75652 4.82993,6.84061 4.82994,-1.25121 4.82991,-1.33529 4.82994,3.33722 4.82993,2.91881 4.82993,2.83675 4.89234,9.25893 4.82994,15.51496 4.82992,11.34395"
           id="path5083"
           inkscape:connector-curvature="0" />
        <path
           style="opacity:0.50000000000000000;fill:none;stroke:#0064ff;stroke-width:1.72500000000000010;stroke-linecap:round;stroke-linejoin:round;stroke-miterlimit:10;stroke-opacity:1;stroke-dasharray:none"
           d="m 179.52673,512.73555 4.82993,11.42803 4.82993,-3.17006 4.82993,-7.50724 4.82994,0.50048 4.82991,0.58357 4.82994,-7.75749 4.82992,-5.67148 4.82994,8.92462 4.89204,18.68502 4.82994,12.59517 4.82993,2.41933 4.82992,10.25989 4.82994,29.27826 4.83007,24.44038 4.82993,-8.84213 4.82992,-34.28328 4.82994,-28.44345 4.82992,-9.92658 4.89161,-9.09177 4.82993,-21.35461 4.82993,-23.60577 4.82993,-14.5971 4.82994,-7.6744 4.82992,-2.91982 4.82993,7.09084 4.82993,14.0966 4.82993,9.67634 4.82993,0.66665 4.8916,-4.08695 4.82993,-4.42126 4.82993,-1.00097 4.82993,6.17296 4.82993,8.00772 4.82994,4.92175 4.82991,9.4251 4.82994,12.34592 4.82993,1.08405 4.82993,-7.25701 4.89234,2.33525 4.82994,15.43189 4.82992,15.76522"
           id="path5081"
           inkscape:connector-curvature="0" />
        <path
           style="opacity:0.50000000000000000;fill:none;stroke:#0064ff;stroke-width:1.72500000000000010;stroke-linecap:round;stroke-linejoin:round;stroke-miterlimit:10;stroke-opacity:1;stroke-dasharray:none"
           d="m 179.52673,531.50366 4.82993,-15.26473 4.82993,-10.00966 4.82993,5.58839 4.82994,12.26184 4.82991,2.41933 4.82994,-10.84346 4.82992,-7.25701 4.82994,12.59516 4.89204,22.35458 4.82994,12.09566 4.82993,4.17002 4.82992,11.09471 4.82994,21.10337 4.83007,18.8514 4.82993,-3.25315 4.82992,-29.94509 4.82994,-37.45315 4.82992,-24.60674 4.89161,-5.92272 4.82993,-0.8338 4.82993,-15.18166 4.82993,-24.94107 4.82994,-13.09563 4.82992,2.91982 4.82993,6.25603 4.82993,-0.8348 4.82993,-4.83768 4.82993,5.42225 4.8916,17.26666 4.82993,13.17872 4.82993,1.66861 4.82993,-3.67055 4.82993,-5.58839 4.82994,-4.67151 4.82991,2.91982 4.82994,8.17489 4.82993,3.66954 4.82993,-4.08694 4.89234,0.25023 4.82994,15.93238 4.82992,20.5198"
           id="path5079"
           inkscape:connector-curvature="0" />
        <path
           style="opacity:0.50000000000000000;fill:none;stroke:#0064ff;stroke-width:1.72500000000000010;stroke-linecap:round;stroke-linejoin:round;stroke-miterlimit:10;stroke-opacity:1;stroke-dasharray:none"
           d="m 179.52673,528.58384 4.82993,7.17393 4.82993,-3.67055 4.82993,-1.66761 4.82994,3.08598 4.82991,-4.83767 4.82994,-16.51593 4.82992,-8.09181 4.82994,17.01643 4.89204,24.77389 4.82994,4.08795 4.82993,-8.75846 4.82992,10.51015 4.82994,32.69776 4.83007,26.19208 4.82993,-4.42108 4.82992,-34.6166 4.82994,-41.45701 4.82992,-21.35361 4.89161,0.0831 4.82993,-2.08501 4.82993,-15.51497 4.82993,-16.18263 4.82994,-8.0908 4.82992,-5.50531 4.82993,-4.08694 4.82993,1.75168 4.82993,7.92365 4.82993,9.25893 4.8916,7.09084 4.82993,6.50628 4.82993,5.83864 4.82993,0.41741 4.82993,-4.50435 4.82994,1.2512 4.82991,8.92461 4.82994,6.67344 4.82993,2.83574 4.82993,1.58553 4.89234,-4.17103 4.82994,-9.25893 4.82992,-0.66764"
           id="path5077"
           inkscape:connector-curvature="0" />
        <path
           style="opacity:0.50000000000000000;fill:none;stroke:#0064ff;stroke-width:1.72500000000000010;stroke-linecap:round;stroke-linejoin:round;stroke-miterlimit:10;stroke-opacity:1;stroke-dasharray:none"
           d="m 179.52673,516.98971 4.82993,12.76232 4.82993,6.17295 4.82993,-3.75362 4.82994,-13.42996 4.82991,-16.59902 4.82994,-7.6744 4.82992,7.92464 4.82994,15.43089 4.89204,14.26377 4.82994,12.76231 4.82993,14.51401 4.82992,21.18744 4.82994,24.52366 4.83007,11.84464 4.82993,-13.09584 4.82992,-32.0309 4.82994,-32.9488 4.82992,-25.6908 4.89161,-21.68793 4.82993,-16.68309 4.82993,-9.17486 4.82993,-1.83577 4.82994,6.25604 4.82992,14.84833 4.82993,16.26569 4.82993,2.33525 4.82993,-14.18068 4.82993,-12.01159 4.8916,1.33529 4.82993,4.08694 4.82993,0.25025 4.82993,3.33622 4.82993,12.59615 4.82994,17.26666 4.82991,4.25411 4.82994,-15.01449 4.82993,-13.34689 4.82993,6.08989 4.89234,15.51496 4.82994,7.50725 4.82992,-1.08505"
           id="path5075"
           inkscape:connector-curvature="0" />
        <path
           style="opacity:0.50000000000000000;fill:none;stroke:#0064ff;stroke-width:1.72500000000000010;stroke-linecap:round;stroke-linejoin:round;stroke-miterlimit:10;stroke-opacity:1;stroke-dasharray:none"
           d="m 179.52673,513.48633 4.82993,4.2541 4.82993,3.83671 4.82993,-5.58839 4.82994,-15.01449 4.82991,-10.17682 4.82994,1.16812 4.82992,3.67054 4.82994,1.16713 4.89204,3.17005 4.82994,11.92852 4.82993,28.52752 4.82992,42.20694 4.82994,34.1998 4.83007,7.34028 4.82993,-17.34994 4.82992,-27.52657 4.82994,-27.52656 4.82992,-25.69179 4.89161,-19.60192 4.82993,-7.00676 4.82993,1.00097 4.82993,-4.33718 4.82994,-13.26281 4.82992,-9.59325 4.82993,3.92078 4.82993,10.34298 4.82993,6.17297 4.82993,-3.25315 4.8916,-11.67827 4.82993,-10.09274 4.82993,1.25121 4.82993,14.93141 4.82993,21.27053 4.82994,8.59129 4.82991,-13.93044 4.82994,-20.60289 4.82993,-6.08888 4.82993,13.2628 4.89234,20.77004 4.82994,13.51305 4.82992,4.83767"
           id="path5073"
           inkscape:connector-curvature="0" />
        <path
           style="opacity:0.50000000000000000;fill:none;stroke:#0064ff;stroke-width:1.72500000000000010;stroke-linecap:round;stroke-linejoin:round;stroke-miterlimit:10;stroke-opacity:1;stroke-dasharray:none"
           d="m 179.52673,531.42064 4.82993,-6.00581 4.82993,-7.257 4.82993,-3.25314 4.82994,3.0029 4.82991,10.6763 4.82994,6.50628 4.82992,-4.33718 4.82994,-9.75942 4.89204,-10.6773 4.82994,-4.58743 4.82993,7.257 4.82992,20.68697 4.82994,34.78356 4.83007,31.78047 4.82993,-2.00193 4.82992,-34.03264 4.82994,-29.61258 4.82992,-10.17582 4.89161,-7.59133 4.82993,-17.68306 4.82993,-21.68793 4.82993,-14.59708 4.82994,-5.33915 4.82992,-3.16906 4.82993,-2.33626 4.82993,7.67441 4.82993,19.18551 4.82993,12.67824 4.8916,-9.8425 4.82993,-17.68406 4.82993,0 4.82993,15.59905 4.82993,13.17872 4.82994,9.42608 4.82991,13.26281 4.82994,11.51111 4.82993,0.33331 4.82993,-8.42413 4.89234,-5.58938 4.82994,1.50144 4.82992,4.25411"
           id="path5071"
           inkscape:connector-curvature="0" />
        <path
           style="opacity:0.50000000000000000;fill:none;stroke:#0064ff;stroke-width:1.72500000000000010;stroke-linecap:round;stroke-linejoin:round;stroke-miterlimit:10;stroke-opacity:1;stroke-dasharray:none"
           d="m 179.52673,512.90276 4.82993,10.59323 4.82993,3.0029 4.82993,-4.17103 4.82994,0.0841 4.82991,6.25603 4.82994,0.25025 4.82992,-9.25894 4.82994,-10.17681 4.89204,-5.50532 4.82994,5.42223 4.82993,24.18935 4.82992,36.53526 4.82994,27.3602 4.83007,1.16753 4.82993,-19.2688 4.82992,-24.52367 4.82994,-27.7768 4.82992,-30.69563 4.89161,-21.35461 4.82993,-4.83766 4.82993,2.25217 4.82993,3.17005 4.82994,6.33913 4.82992,4.92175 4.82993,-2.91982 4.82993,-11.42803 4.82993,-15.59805 4.82993,-8.59129 4.8916,4.58742 4.82993,12.26184 4.82993,14.514 4.82993,13.93045 4.82993,8.92461 4.82994,2.83674 4.82991,5.33814 4.82994,9.59227 4.82993,1.33529 4.82993,-7.92466 4.89234,-3.0029 4.82994,4.7546 4.82992,3.50338"
           id="path5069"
           inkscape:connector-curvature="0" />
        <path
           style="opacity:0.50000000000000000;fill:none;stroke:#0064ff;stroke-width:1.72500000000000010;stroke-linecap:round;stroke-linejoin:round;stroke-miterlimit:10;stroke-opacity:1;stroke-dasharray:none"
           d="m 179.52673,505.56166 4.82993,3.75362 4.82993,2.83674 4.82993,-10.09374 4.82994,-11.01063 4.82991,4.00387 4.82994,18.43479 4.82992,23.18938 4.82994,11.5111 4.89204,-12.42899 4.82994,-15.76521 4.82993,14.59708 4.82992,42.04058 4.82994,34.36695 4.83007,3.41971 4.82993,-23.43902 4.82992,-33.86648 4.82994,-28.94393 4.82992,-19.93624 4.89161,-14.59709 4.82993,-9.4261 4.82993,-7.257 4.82993,-9.09177 4.82994,-7.00676 4.82992,-1.83577 4.82993,3.25313 4.82993,9.50917 4.82993,10.00967 4.82993,1.08504 4.8916,-5.75555 4.82993,-5.58939 4.82993,-2.25217 4.82993,7.75748 4.82993,15.84929 4.82994,6.4222 4.82991,-6.67244 4.82994,0.25024 4.82993,15.59805 4.82993,14.93142 4.89234,2.91881 4.82994,-4.75459 4.82992,-5.92171"
           id="path5067"
           inkscape:connector-curvature="0" />
        <path
           style="opacity:0.50000000000000000;fill:none;stroke:#0064ff;stroke-width:1.72500000000000010;stroke-linecap:round;stroke-linejoin:round;stroke-miterlimit:10;stroke-opacity:1;stroke-dasharray:none"
           d="m 179.52673,535.67472 4.82993,8.25797 4.82993,-9.50918 4.82993,-16.60002 4.82994,-2.00193 4.82991,9.67634 4.82994,8.67537 4.82992,6.0058 4.82994,2.33525 4.89204,-3.75363 4.82994,-5.42223 4.82993,2.25218 4.82992,15.68213 4.82994,28.11013 4.83007,23.9401 4.82993,-3.8369 4.82992,-27.69352 4.82994,-23.43963 4.82992,-8.17388 4.89161,-11.51112 4.82993,-25.94203 4.82993,-27.94396 4.82993,-18.18355 4.82994,-5.67248 4.82992,7.92465 4.82993,11.51111 4.82993,-3.08698 4.82993,-15.3478 4.82993,-4.08695 4.8916,11.51111 4.82993,9.17484 4.82993,1.41838 4.82993,3.17006 4.82993,8.59129 4.82994,9.00869 4.82991,5.42224 4.82994,4.58741 4.82993,3.17008 4.82993,-1.00098 4.89234,1.33428 4.82994,10.67731 4.82992,12.92848"
           id="path5065"
           inkscape:connector-curvature="0" />
        <path
           style="opacity:0.50000000000000000;fill:none;stroke:#0064ff;stroke-width:1.72500000000000010;stroke-linecap:round;stroke-linejoin:round;stroke-miterlimit:10;stroke-opacity:1;stroke-dasharray:none"
           d="m 179.52673,513.0689 4.82993,-10.6763 4.82993,5.92171 4.82993,14.76426 4.82994,1.41835 4.82991,-14.26375 4.82994,-8.34106 4.82992,10.59323 4.82994,17.18358 4.89204,7.34009 4.82994,-4.83767 4.82993,-0.4174 4.82992,22.93913 4.82994,40.03844 4.83007,28.27728 4.82993,-5.50531 4.82992,-35.86821 4.82994,-44.0427 4.82992,-30.19514 4.89161,-8.92561 4.82993,0.58356 4.82993,-7.25701 4.82993,-13.76328 4.82994,-6.25604 4.82992,2.1691 4.82993,-1.00096 4.82993,-8.59129 4.82993,-6.75653 4.82993,7.3401 4.8916,13.51302 4.82993,1.91886 4.82993,-4.00386 4.82993,6.42219 4.82993,12.51207 4.82994,7.50725 4.82991,5.33915 4.82994,6.25604 4.82993,3.4193 4.82993,1.16813 4.89234,1.75169 4.82994,0.16715 4.82992,-6.59036"
           id="path5063"
           inkscape:connector-curvature="0" />
        <path
           style="opacity:0.50000000000000000;fill:none;stroke:#0064ff;stroke-width:1.72500000000000010;stroke-linecap:round;stroke-linejoin:round;stroke-miterlimit:10;stroke-opacity:1;stroke-dasharray:none"
           d="m 179.52673,524.74718 4.82993,0.91788 4.82993,-7.257 4.82993,-4.7546 4.82994,3.16906 4.82991,6.42321 4.82994,4.17101 4.82992,0.33333 4.82994,-0.25024 4.89204,0.66765 4.82994,-0.91789 4.82993,7.59033 4.82992,27.69372 4.82994,34.45004 4.83007,17.9337 4.82993,-11.34414 4.82992,-35.61737 4.82994,-36.53525 4.82992,-19.01836 4.89161,-7.34109 4.82993,-13.01256 4.82993,-17.68306 4.82993,-10.84446 4.82994,-6.17196 4.82992,-4.92175 4.82993,-4.17101 4.82993,-5.00484 4.82993,-0.33332 4.82993,10.42705 4.8916,19.43477 4.82993,20.43672 4.82993,9.92657 4.82993,-8.42513 4.82993,-19.93623 4.82994,-12.17775 4.82991,7.84056 4.82994,20.10239 4.82993,17.93431 4.82993,10.84347 4.89234,2.91982 4.82994,-4.00386 4.82992,-3.17006"
           id="path5061"
           inkscape:connector-curvature="0" />
        <path
           style="opacity:0.50000000000000000;fill:none;stroke:#0064ff;stroke-width:1.72500000000000010;stroke-linecap:round;stroke-linejoin:round;stroke-miterlimit:10;stroke-opacity:1;stroke-dasharray:none"
           d="m 179.52673,526.99935 4.82993,11.51111 4.82993,-4.67152 4.82993,-6.58935 4.82994,-4.08695 4.82991,-4.00386 4.82994,-0.8348 4.82992,0.75072 4.82994,-0.4164 4.89204,0.083 4.82994,6.0058 4.82993,17.51689 4.82992,31.28019 4.82994,36.20173 4.83007,16.09874 4.82993,-19.10163 4.82992,-36.61914 4.82994,-29.11109 4.82992,-14.93141 4.89161,-9.59226 4.82993,-17.18358 4.82993,-23.9391 4.82993,-15.76521 4.82994,-0.66766 4.82992,3.33623 4.82993,-3.08597 4.82993,-0.33333 4.82993,10.00966 4.82993,8.34105 4.8916,-0.58356 4.82993,1.16713 4.82993,14.43092 4.82993,19.93624 4.82993,2.83573 4.82994,-19.85216 4.82991,-18.51786 4.82994,0.75072 4.82993,9.17486 4.82993,6.08987 4.89234,6.58936 4.82994,7.50725 4.82992,7.50724"
           id="path5059"
           inkscape:connector-curvature="0" />
        <path
           style="opacity:0.50000000000000000;fill:none;stroke:#0064ff;stroke-width:1.72500000000000010;stroke-linecap:round;stroke-linejoin:round;stroke-miterlimit:10;stroke-opacity:1;stroke-dasharray:none"
           d="m 179.52673,507.98095 4.82993,14.59709 4.82993,4.42127 4.82993,-8.00773 4.82994,-5.42224 4.82991,4.83868 4.82994,8.84153 4.82992,0.75072 4.82994,-8.84153 4.89204,-8.09181 4.82994,0.33432 4.82993,11.76135 4.82992,26.1082 4.82994,35.53428 4.83007,26.02512 4.82993,-4.50435 4.82992,-34.45024 4.82994,-41.20576 4.82992,-28.36137 4.89161,-9.8425 4.82993,3.08598 4.82993,0.0841 4.82993,-9.50918 4.82994,-8.50821 4.82992,-0.50049 4.82993,2.08502 4.82993,-2.33525 4.82993,-8.34206 4.82993,-5.83863 4.8916,8.09081 4.82993,18.51787 4.82993,15.09857 4.82993,7.59032 4.82993,3.92079 4.82994,-1.75169 4.82991,-8.17489 4.82994,-7.84056 4.82993,-1.83578 4.82993,4.50436 4.89234,7.67439 4.82994,6.50628 4.82992,6.75652"
           id="path5057"
           inkscape:connector-curvature="0" />
        <path
           style="opacity:0.50000000000000000;fill:none;stroke:#0064ff;stroke-width:1.72500000000000010;stroke-linecap:round;stroke-linejoin:round;stroke-miterlimit:10;stroke-opacity:1;stroke-dasharray:none"
           d="m 179.52673,501.64181 4.82993,-3.58746 4.82993,6.75652 4.82993,14.76425 4.82994,5.75556 4.82991,-4.08695 4.82994,-1.00097 4.82992,5.17199 4.82994,3.33622 4.89204,1.08405 4.82994,5.58939 4.82993,10.42606 4.82992,18.51788 4.82994,28.44445 4.83007,19.10163 4.82993,-9.00869 4.82992,-30.11227 4.82994,-34.11592 4.82992,-27.69371 4.89161,-19.18553 4.82993,-16.18162 4.82993,-13.76328 4.82993,-4.58842 4.82994,2.91982 4.82992,1.16812 4.82993,-0.75072 4.82993,2.66857 4.82993,6.25604 4.82993,12.67924 4.8916,22.10433 4.82993,19.35268 4.82993,1.16712 4.82993,-16.09854 4.82993,-15.93237 4.82994,0.16716 4.82991,11.17779 4.82994,9.92558 4.82993,3.67054 4.82993,-1.83477 4.89234,2.58549 4.82994,7.75749 4.82992,0.33332"
           id="path5055"
           inkscape:connector-curvature="0" />
        <path
           style="opacity:0.50000000000000000;fill:none;stroke:#0064ff;stroke-width:1.72500000000000010;stroke-linecap:round;stroke-linejoin:round;stroke-miterlimit:10;stroke-opacity:1;stroke-dasharray:none"
           d="m 179.52673,516.07174 4.82993,6.25603 4.82993,7.50725 4.82993,-2.50242 4.82994,-7.08984 4.82991,3.83671 4.82994,8.09181 4.82992,-5.33916 4.82994,-12.67823 4.89204,-6.50628 4.82994,0.41641 4.82993,14.9314 4.82992,39.87148 4.82994,44.54318 4.83007,11.67808 4.82993,-25.94185 4.82992,-34.44943 4.82994,-26.44253 4.82992,-25.85795 4.89161,-24.10726 4.82993,-12.09468 4.82993,0.66765 4.82993,8.67437 4.82994,10.09375 4.82992,0.91687 4.82993,-13.92943 4.82993,-17.85124 4.82993,-3.08597 4.82993,11.59418 4.8916,9.8435 4.82993,5.50532 4.82993,11.01063 4.82993,15.51497 4.82993,9.8425 4.82994,-2.66958 4.82991,-8.25796 4.82994,-2.41834 4.82993,3.66954 4.82993,3.33723 4.89234,2.085 4.82994,0.91789 4.82992,-3.50338"
           id="path5053"
           inkscape:connector-curvature="0" />
        <path
           style="opacity:0.50000000000000000;fill:none;stroke:#0064ff;stroke-width:1.72500000000000010;stroke-linecap:round;stroke-linejoin:round;stroke-miterlimit:10;stroke-opacity:1;stroke-dasharray:none"
           d="m 179.52673,531.58671 4.82993,-4.25411 4.82993,-5.0879 4.82993,6.92368 4.82994,10.76038 4.82991,3.41931 4.82994,0.75072 4.82992,1.00096 4.82994,-3.08597 4.89204,-10.09275 4.82994,-9.59326 4.82993,11.51111 4.82992,40.2058 4.82994,40.87264 4.83007,6.75653 4.82993,-31.36346 4.82992,-47.12849 4.82994,-37.95362 4.82992,-17.59998 4.89161,-4.50435 4.82993,-6.84061 4.82993,-11.0937 4.82993,-6.67344 4.82994,-4.2541 4.82992,-1.66762 4.82993,7.42316 4.82993,9.59326 4.82993,5.67148 4.82993,4.50435 4.8916,-2.50242 4.82993,-8.92462 4.82993,-3.8377 4.82993,1.33529 4.82993,0.66664 4.82994,4.50435 4.82991,9.25893 4.82994,9.0087 4.82993,11.17779 4.82993,10.42706 4.89234,1.25121 4.82994,-2.66958 4.82992,6.4232"
           id="path5051"
           inkscape:connector-curvature="0" />
        <path
           style="opacity:0.50000000000000000;fill:none;stroke:#0064ff;stroke-width:1.72500000000000010;stroke-linecap:round;stroke-linejoin:round;stroke-miterlimit:10;stroke-opacity:1;stroke-dasharray:none"
           d="m 179.52673,539.01087 4.82993,-7.75747 4.82993,-4.33719 4.82993,-5.08891 4.82994,5.17199 4.82991,16.76618 4.82994,5.83862 4.82992,-13.17871 4.82994,-12.8464 4.89204,2.50242 4.82994,9.25893 4.82993,3.4203 4.82992,9.59226 4.82994,30.52946 4.83007,29.52869 4.82993,-3.83689 4.82992,-34.03284 4.82994,-35.03381 4.82992,-18.8512 4.89161,-10.92754 4.82993,-17.43382 4.82993,-20.60288 4.82993,-7.34009 4.82994,9.0087 4.82992,10.17581 4.82993,-3.4193 4.82993,-14.34784 4.82993,-11.0937 4.82993,-0.25025 4.8916,7.6744 4.82993,6.58936 4.82993,-0.4174 4.82993,1.16812 4.82993,10.76039 4.82994,11.01063 4.82991,2.75266 4.82994,0.0831 4.82993,3.58746 4.82993,4.83767 4.89234,4.33718 4.82994,7.50725 4.82992,11.26086"
           id="path5047"
           inkscape:connector-curvature="0" />
        <path
           style="opacity:0.50000000000000000;fill:none;stroke:#0064ff;stroke-width:1.72500000000000010;stroke-linecap:round;stroke-linejoin:round;stroke-miterlimit:10;stroke-opacity:1;stroke-dasharray:none"
           d="m 179.52673,521.49397 4.82993,1.58454 4.82993,-7.42317 4.82993,-8.25797 4.82994,-2.08602 4.82991,8.09182 4.82994,18.43379 4.82992,16.85026 4.82994,0.16615 4.89204,-14.34684 4.82994,-10.2599 4.82993,11.34395 4.82992,33.86667 4.82994,34.61642 4.83007,11.01062 4.82993,-19.93604 4.82992,-40.87264 4.82994,-38.70436 4.82992,-19.01835 4.89161,-5.33815 4.82993,-8.67537 4.82993,-16.84925 4.82993,-9.92659 4.82994,7.42417 4.82992,10.42706 4.82993,0.25025 4.82993,-3.42031 4.82993,3.25314 4.82993,11.9285 4.8916,11.51112 4.82993,3.16906 4.82993,-2.16809 4.82993,-2.50242 4.82993,-0.16716 4.82994,-0.50049 4.82991,-2.33525 4.82994,4.33718 4.82993,11.26087 4.82993,5.83864 4.89234,-1.41736 4.82994,0.50046 4.82992,7.75749"
           id="path5045"
           inkscape:connector-curvature="0" />
        <path
           style="opacity:0.50000000000000000;fill:none;stroke:#0064ff;stroke-width:1.72500000000000010;stroke-linecap:round;stroke-linejoin:round;stroke-miterlimit:10;stroke-opacity:1;stroke-dasharray:none"
           d="m 179.52673,520.9104 4.82993,3.58646 4.82993,6.17297 4.82993,3.25313 4.82994,-5.5053 4.82991,-9.25894 4.82994,-0.4174 4.82992,14.09659 4.82994,14.68117 4.89204,-0.16715 4.82994,-5.5884 4.82993,7.84056 4.82992,23.35655 4.82994,27.10916 4.83007,13.42976 4.82993,-9.17566 4.82992,-26.69276 4.82994,-33.28211 4.82992,-29.77873 4.89161,-22.6879 4.82993,-12.34592 4.82993,-2.41834 4.82993,-5.0889 4.82994,-10.59322 4.82992,-4.58743 4.82993,1.2512 4.82993,-1.00096 4.82993,-1.91886 4.82993,2.08502 4.8916,1.83577 4.82993,-1.91884 4.82993,4.08693 4.82993,14.26377 4.82993,14.76425 4.82994,7.50724 4.82991,-0.16616 4.82994,-4.75459 4.82993,-4.42127 4.82993,2.75266 4.89234,9.75942 4.82994,7.08985 4.82992,1.41836"
           id="path5043"
           inkscape:connector-curvature="0" />
        <path
           style="opacity:0.50000000000000000;fill:none;stroke:#0064ff;stroke-width:1.72500000000000010;stroke-linecap:round;stroke-linejoin:round;stroke-miterlimit:10;stroke-opacity:1;stroke-dasharray:none"
           d="m 179.52673,521.32681 4.82993,16.93334 4.82993,5.58839 4.82993,-7.75748 4.82994,-3.16906 4.82991,9.92558 4.82994,8.34205 4.82992,-5.67248 4.82994,-11.67827 4.89204,-2.33525 4.82994,9.50917 4.82993,15.51498 4.82992,20.01932 4.82994,19.26859 4.83007,5.1718 4.82993,-15.0145 4.82992,-29.69545 4.82994,-35.78453 4.82992,-25.94204 4.89161,-1.91785 4.82993,8.1739 4.82993,-8.09082 4.82993,-25.52463 4.82994,-21.60385 4.82992,-4.17103 4.82993,8.92562 4.82993,7.75748 4.82993,-1.91885 4.82993,-5.17198 4.8916,-0.0831 4.82993,5.83863 4.82993,9.17586 4.82993,7.84056 4.82993,3.08699 4.82994,1.6676 4.82991,8.09182 4.82994,18.43378 4.82993,19.10244 4.82993,6.25603 4.89234,-6.00579 4.82994,-6.92368 4.82992,-0.83381"
           id="path5039"
           inkscape:connector-curvature="0" />
        <path
           style="opacity:0.50000000000000000;fill:none;stroke:#0064ff;stroke-width:1.72500000000000010;stroke-linecap:round;stroke-linejoin:round;stroke-miterlimit:10;stroke-opacity:1;stroke-dasharray:none"
           d="m 179.52673,517.23981 4.82993,15.09758 4.82993,3.42029 4.82993,-9.67633 4.82994,-9.25894 4.82991,-2.16809 4.82994,-0.25025 4.82992,2.83574 4.82994,5.5884 4.89204,-3.33622 4.82994,-9.59226 4.82993,12.59516 4.82992,46.21159 4.82994,44.95959 4.83007,2.25218 4.82993,-38.11999 4.82992,-43.29179 4.82994,-23.43961 4.82992,-7.75749 4.89161,-11.0937 4.82993,-20.1024 4.82993,-12.8464 4.82993,4.67151 4.82994,10.92754 4.82992,6.17195 4.82993,1.50146 4.82993,0 4.82993,0.8348 4.82993,4.75459 4.8916,10.59323 4.82993,11.67827 4.82993,3.25313 4.82993,-5.50531 4.82993,-5.42223 4.82994,-3.67054 4.82991,-2.5855 4.82994,7.84057 4.82993,15.26473 4.82993,2.50241 4.89234,-16.51593 4.82994,-15.8483 4.82992,6.17296"
           id="path5037"
           inkscape:connector-curvature="0" />
        <path
           style="opacity:0.50000000000000000;fill:none;stroke:#0064ff;stroke-width:1.72500000000000010;stroke-linecap:round;stroke-linejoin:round;stroke-miterlimit:10;stroke-opacity:1;stroke-dasharray:none"
           d="m 179.52673,516.07169 4.82993,2.33625 4.82993,-1.91885 4.82993,2.00193 4.82994,9.84251 4.82991,3.25312 4.82994,-7.84056 4.82992,-7.6744 4.82994,-5.25507 4.89204,-4.33719 4.82994,4.08694 4.82993,23.02223 4.82992,39.78838 4.82994,33.94977 4.83007,5.92252 4.82993,-23.85663 4.82992,-34.61661 4.82994,-24.85698 4.82992,-14.68117 4.89161,-16.09853 4.82993,-19.85315 4.82993,-14.34685 4.82993,1.16813 4.82994,12.26182 4.82992,6.75653 4.82993,-4.17103 4.82993,-6.33911 4.82993,-3.83771 4.82993,1.66861 4.8916,7.257 4.82993,3.25315 4.82993,-5.172 4.82993,-1.75169 4.82993,10.92754 4.82994,15.0145 4.82991,8.75844 4.82994,5.83865 4.82993,7.59132 4.82993,5.0879 4.89234,-4.00386 4.82994,-8.59129 4.82992,-2.58649"
           id="path5035"
           inkscape:connector-curvature="0" />
        <path
           style="opacity:0.50000000000000000;fill:none;stroke:#0064ff;stroke-width:1.72500000000000010;stroke-linecap:round;stroke-linejoin:round;stroke-miterlimit:10;stroke-opacity:1;stroke-dasharray:none"
           d="m 179.52673,500.72387 4.82993,8.1749 4.82993,8.34104 4.82993,4.50435 4.82994,4.17103 4.82991,9.17485 4.82994,8.34205 4.82992,1.75169 4.82994,-4.42126 4.89204,-11.17779 4.82994,-10.00966 4.82993,7.92465 4.82992,29.61157 4.82994,34.36697 4.83007,18.93466 4.82993,-2.0852 4.82992,-20.51981 4.82994,-34.11592 4.82992,-35.78453 4.89161,-29.77874 4.82993,-22.02124 4.82993,-12.67924 4.82993,-5.33816 4.82994,-1.00095 4.82992,2.58548 4.82993,7.34009 4.82993,14.34784 4.82993,14.01353 4.82993,6.08887 4.8916,-1.00097 4.82993,-6.00579 4.82993,-4.92175 4.82993,3.0029 4.82993,9.59325 4.82994,8.09082 4.82991,1.50144 4.82994,-7.50724 4.82993,-14.76425 4.82993,-3.58646 4.89234,21.60385 4.82994,29.77873 4.82992,12.59516"
           id="path5033"
           inkscape:connector-curvature="0" />
        <path
           style="opacity:0.50000000000000000;fill:none;stroke:#0064ff;stroke-width:1.72500000000000010;stroke-linecap:round;stroke-linejoin:round;stroke-miterlimit:10;stroke-opacity:1;stroke-dasharray:none"
           d="m 179.52673,511.06686 4.82993,2.086 4.82993,14.51402 4.82993,12.59515 4.82994,-0.58356 4.82991,-12.51207 4.82994,-11.84543 4.82992,-1.41737 4.82994,2.25217 4.89204,-2.66958 4.82994,4.17103 4.82993,24.10626 4.82992,34.61641 4.82994,23.77314 4.83007,3.33682 4.82993,-10.42686 4.82992,-16.51594 4.82994,-21.68793 4.82992,-29.36133 4.89161,-33.53236 4.82993,-22.60481 4.82993,-4.33819 4.82993,0.50048 4.82994,-4.6705 4.82992,-7.75749 4.82993,-6.59036 4.82993,3.33722 4.82993,17.34974 4.82993,18.10047 4.8916,8.0918 4.82993,0.83381 4.82993,-2.58549 4.82993,-2.33626 4.82993,3.75363 4.82994,6.92367 4.82991,0.41741 4.82994,-4.75459 4.82993,1.83477 4.82993,8.50821 4.89234,5.67247 4.82994,5.33816 4.82992,9.59225"
           id="path5031"
           inkscape:connector-curvature="0" />
        <path
           style="opacity:0.50000000000000000;fill:none;stroke:#0064ff;stroke-width:1.72500000000000010;stroke-linecap:round;stroke-linejoin:round;stroke-miterlimit:10;stroke-opacity:1;stroke-dasharray:none"
           d="m 179.52673,530.33546 4.82993,0.25024 4.82993,2.41933 4.82993,5.0879 4.82994,1.33529 4.82991,-3.67054 4.82994,-3.58646 4.82992,-0.4174 4.82994,-2.66957 4.89204,-10.92655 4.82994,-10.92755 4.82993,5.42225 4.82992,30.02896 4.82994,44.62607 4.83007,31.19691 4.82993,-5.92251 4.82992,-41.20677 4.82994,-50.79902 4.82992,-27.94297 4.89161,0.91688 4.82993,2.91982 4.82993,-15.26473 4.82993,-21.77101 4.82994,-10.51014 4.82992,1.00096 4.82993,8.25797 4.82993,8.17489 4.82993,-3.50337 4.82993,-11.34496 4.8916,-0.4164 4.82993,18.10047 4.82993,18.18455 4.82993,0.33332 4.82993,-8.17489 4.82994,-0.41641 4.82991,7.42318 4.82994,7.00675 4.82993,4.50435 4.82993,7.17393 4.89234,10.34297 4.82994,6.08988 4.82992,0.16617"
           id="path5029"
           inkscape:connector-curvature="0" />
        <path
           style="opacity:0.50000000000000000;fill:none;stroke:#0064ff;stroke-width:1.72500000000000010;stroke-linecap:round;stroke-linejoin:round;stroke-miterlimit:10;stroke-opacity:1;stroke-dasharray:none"
           d="m 179.52673,502.80889 4.82993,4.2541 4.82993,5.17199 4.82993,-1.50145 4.82994,-7.17391 4.82991,-1.58453 4.82994,13.34588 4.82992,19.60292 4.82994,7.6734 4.89204,-5.42123 4.82994,-1.7517 4.82993,12.34492 4.82992,26.60868 4.82994,31.61431 4.83007,18.51786 4.82993,-6.58995 4.82992,-31.53043 4.82994,-41.70646 4.82992,-29.028 4.89161,-14.18069 4.82993,-13.09563 4.82993,-12.26184 4.82993,-6.00579 4.82994,-3.8377 4.82992,-3.58647 4.82993,-0.58357 4.82993,-1.91884 4.82993,-5.25507 4.82993,1.41837 4.8916,12.26183 4.82993,13.34587 4.82993,6.75653 4.82993,0.66764 4.82993,-3.75363 4.82994,-1.66861 4.82991,9.50918 4.82994,18.18455 4.82993,15.01449 4.82993,4.00387 4.89234,-10.67731 4.82994,-17.93431 4.82992,-3.66953"
           id="path5027"
           inkscape:connector-curvature="0" />
        <path
           style="opacity:0.50000000000000000;fill:none;stroke:#0064ff;stroke-width:1.72500000000000010;stroke-linecap:round;stroke-linejoin:round;stroke-miterlimit:10;stroke-opacity:1;stroke-dasharray:none"
           d="m 179.52673,515.40505 4.82993,-7.09085 4.82993,-3.41929 4.82993,8.34104 4.82994,12.8454 4.82991,7.50725 4.82994,0.58455 4.82992,-2.75265 4.82994,-1.33529 4.89204,-2.16809 4.82994,-5.00483 4.82993,5.0879 4.82992,30.11207 4.82994,40.87324 4.83007,18.26763 4.82993,-19.10203 4.82992,-42.04078 4.82994,-38.62026 4.82992,-24.27343 4.89161,-16.34877 4.82993,-9.8435 4.82993,1.33528 4.82993,5.08791 4.82994,-3.92078 4.82992,-9.50918 4.82993,-0.16616 4.82993,14.84733 4.82993,18.4348 4.82993,3.75362 4.8916,-15.26473 4.82993,-13.59713 4.82993,8.17488 4.82993,20.43673 4.82993,11.59419 4.82994,-1.16813 4.82991,-6.50628 4.82994,-6.33911 4.82993,3.75362 4.82993,14.84733 4.89234,9.59325 4.82994,-1.41836 4.82992,-1.08404"
           id="path5025"
           inkscape:connector-curvature="0" />
        <path
           style="opacity:0.50000000000000000;fill:none;stroke:#0064ff;stroke-width:1.72500000000000010;stroke-linecap:round;stroke-linejoin:round;stroke-miterlimit:10;stroke-opacity:1;stroke-dasharray:none"
           d="m 179.52673,533.42243 4.82993,-12.26183 4.82993,-10.09374 4.82993,4.17102 4.82994,10.17682 4.82991,3.16906 4.82994,-3.83669 4.82992,-2.08502 4.82994,7.92365 4.89204,13.59712 4.82994,3.33621 4.82993,-3.92078 4.82992,14.0976 4.82994,33.78241 4.83007,22.68829 4.82993,-5.5886 4.82992,-27.44327 4.82994,-38.37023 4.82992,-32.28115 4.89161,-14.514 4.82993,-5.75556 4.82993,-9.17587 4.82993,-12.3449 4.82994,-10.76038 4.82992,-7.25701 4.82993,-0.8338 4.82993,7.00675 4.82993,8.25798 4.82993,4.00386 4.8916,0.91688 4.82993,1.41837 4.82993,6.08888 4.82993,7.00676 4.82993,3.25315 4.82994,5.67246 4.82991,8.67538 4.82994,3.08598 4.82993,-1.83478 4.82993,1.41737 4.89234,5.67248 4.82994,7.6744 4.82992,9.09177"
           id="path5023"
           inkscape:connector-curvature="0" />
        <path
           style="opacity:0.50000000000000000;fill:none;stroke:#0064ff;stroke-width:1.72500000000000010;stroke-linecap:round;stroke-linejoin:round;stroke-miterlimit:10;stroke-opacity:1;stroke-dasharray:none"
           d="m 179.52673,533.00503 4.82993,-21.02029 4.82993,-11.92851 4.82993,7.75748 4.82994,11.67828 4.82991,0.33331 4.82994,-4.33718 4.82992,4.08695 4.82994,12.59615 4.89204,10.2599 4.82994,2.5855 4.82993,5.25508 4.82992,20.35263 4.82994,29.44542 4.83007,17.09971 4.82993,-10.67672 4.82992,-35.86841 4.82994,-41.20576 4.82992,-26.60968 4.89161,-11.42703 4.82993,-10.42706 4.82993,-11.42803 4.82993,-4.25411 4.82994,-4.92074 4.82992,-12.51207 4.82993,-4.17103 4.82993,13.51304 4.82993,12.84539 4.82993,-4.17002 4.8916,-9.09278 4.82993,7.17393 4.82993,20.5198 4.82993,12.09467 4.82993,-7.00676 4.82994,-14.26376 4.82991,-3.50339 4.82994,11.26087 4.82993,15.34882 4.82993,8.75844 9.72228,0 4.82992,9.92558"
           id="path5021"
           inkscape:connector-curvature="0" />
        <path
           style="opacity:0.50000000000000000;fill:none;stroke:#0064ff;stroke-width:1.72500000000000010;stroke-linecap:round;stroke-linejoin:round;stroke-miterlimit:10;stroke-opacity:1;stroke-dasharray:none"
           d="m 179.52673,530.00214 4.82993,1.08404 4.82993,-3.91978 4.82993,1.91785 4.82994,8.00772 4.82991,4.17103 4.82994,-2.83574 4.82992,-6.75652 4.82994,-10.34398 4.89204,-11.51111 4.82994,2.41933 4.82993,29.86183 4.82992,42.45797 4.82994,25.69159 4.83007,0.25023 4.82993,-16.34937 4.82992,-29.77894 4.82994,-38.78743 4.82992,-27.44248 4.89161,-5.50531 4.82993,2.91881 4.82993,-2.16809 4.82993,-8.17489 4.82994,-9.59226 4.82992,-6.67344 4.82993,-4.08694 4.82993,-6.08988 4.82993,-3.00289 4.82993,10.09374 4.8916,14.84733 4.82993,4.67151 4.82993,-5.33915 4.82993,-8.1739 4.82993,-8.42512 4.82994,-6.08888 4.82991,3.33622 4.82994,15.93238 4.82993,20.60288 4.82993,16.01545 4.89234,8.75845 4.82994,2.50241 4.82992,1.66861"
           id="path5019"
           inkscape:connector-curvature="0" />
        <path
           style="opacity:0.50000000000000000;fill:none;stroke:#0064ff;stroke-width:1.72500000000000010;stroke-linecap:round;stroke-linejoin:round;stroke-miterlimit:10;stroke-opacity:1;stroke-dasharray:none"
           d="m 179.52673,520.49296 4.82993,17.68406 4.82993,5.42123 4.82993,-6.67244 4.82994,-8.25797 4.82991,1.08405 4.82994,7.34008 4.82992,-2.25217 4.82994,-13.17872 4.89204,-4.83867 4.82994,13.59712 4.82993,24.77392 4.82992,29.61156 4.82994,24.52368 4.83007,3.67033 4.82993,-19.51884 4.82992,-28.6114 4.82994,-24.68982 4.82992,-22.2715 4.89161,-26.27535 4.82993,-22.93914 4.82993,-6.50628 4.82993,7.257 4.82994,5.75556 4.82992,-8.00773 4.82993,-17.26667 4.82993,-8.67536 4.82993,10.09374 4.82993,21.771 4.8916,15.26474 4.82993,-1.58554 4.82993,-4.83767 4.82993,10.76039 4.82993,17.85022 4.82994,3.92079 4.82991,-10.09274 4.82994,-12.34592 4.82993,-7.257 4.82993,3.75363 4.89234,14.84832 4.82994,19.35167 4.82992,17.34974"
           id="path5015"
           inkscape:connector-curvature="0" />
        <path
           style="opacity:0.50000000000000000;fill:none;stroke:#0064ff;stroke-width:1.72500000000000010;stroke-linecap:round;stroke-linejoin:round;stroke-miterlimit:10;stroke-opacity:1;stroke-dasharray:none"
           d="m 179.52673,501.97509 4.82993,2.33525 4.82993,8.59229 4.82993,9.0087 4.82994,3.25313 4.82991,-2.08601 4.82994,-4.67051 4.82992,-5.42223 4.82994,-0.25024 4.89204,9.34201 4.82994,13.34688 4.82993,13.59612 4.82992,23.1053 4.82994,29.11189 4.83007,11.42743 4.82993,-18.93467 4.82992,-39.20463 4.82994,-36.11786 4.82992,-18.26762 4.89161,-7.00676 4.82993,-9.92659 4.82993,-19.10144 4.82993,-16.51594 4.82994,1.83479 4.82992,12.51207 4.82993,6.17296 4.82993,2.5024 4.82993,9.09178 4.82993,9.75943 4.8916,-2.08502 4.82993,-10.42706 4.82993,-6.75653 4.82993,-0.083 4.82993,6.33912 4.82994,13.34587 4.82991,13.2628 4.82994,7.25701 4.82993,6.42319 4.82993,8.50821 4.89234,6.33912 4.82994,1.08504 4.82992,-3.42029"
           id="path5013"
           inkscape:connector-curvature="0" />
        <path
           style="opacity:0.50000000000000000;fill:none;stroke:#0064ff;stroke-width:1.72500000000000010;stroke-linecap:round;stroke-linejoin:round;stroke-miterlimit:10;stroke-opacity:1;stroke-dasharray:none"
           d="m 179.52673,541.76352 4.82993,-0.33331 4.82993,-16.6831 4.82993,-15.68215 4.82994,4.67151 4.82991,15.26474 4.82994,3.92078 4.82992,-4.25411 4.82994,2.83574 4.89204,6.25605 4.82994,0.83379 4.82993,1.75169 4.82992,12.76231 4.82994,26.94301 4.83007,27.44328 4.82993,0 4.82992,-32.86552 4.82994,-37.20189 4.82992,-20.5198 4.89161,-8.84253 4.82993,-6.83961 4.82993,-8.34105 4.82993,-13.2628 4.82994,-16.34978 4.82992,-8.50821 4.82993,4.08795 4.82993,7.25701 4.82993,0.58355 4.82993,-8.0908 4.8916,-13.34688 4.82993,-4.42027 4.82993,15.76522 4.82993,24.02318 4.82993,12.17775 4.82994,-3.25314 4.82991,-1.66761 4.82994,13.84637 4.82993,17.59998 4.82993,5.83963 4.89234,-5.33915 4.82994,-8.67437 4.82992,-3.67054"
           id="path5011"
           inkscape:connector-curvature="0" />
        <path
           style="opacity:0.50000000000000000;fill:none;stroke:#0064ff;stroke-width:1.72500000000000010;stroke-linecap:round;stroke-linejoin:round;stroke-miterlimit:10;stroke-opacity:1;stroke-dasharray:none"
           d="m 179.52673,522.49493 4.82993,-3.08598 4.82993,-2.5865 4.82993,17.43383 4.82994,18.76811 4.82991,-11.84444 4.82994,-31.69758 4.82992,-10.76038 4.82994,20.77004 4.89204,25.02415 4.82994,5.58839 4.82993,-3.25313 4.82992,19.43574 4.82994,38.45392 4.83007,14.01352 4.82993,-25.77487 4.82992,-36.3689 4.82994,-27.27633 4.82992,-26.85891 4.89161,-28.27728 4.82993,-12.76232 4.82993,5.92272 4.82993,10.00965 4.82994,8.84153 4.82992,6.75652 4.82993,-6.33911 4.82993,-16.6831 4.82993,-9.17587 4.82993,-1.41736 4.8916,-3.58746 4.82993,2.91982 4.82993,19.35167 4.82993,19.68599 4.82993,3.0029 4.82994,-5.00483 4.82991,-1.08404 4.82994,3.08597 4.82993,4.42128 4.82993,7.00676 4.89234,10.92654 4.82994,8.59229 4.82992,-2.66957"
           id="path5009"
           inkscape:connector-curvature="0" />
        <path
           style="opacity:0.50000000000000000;fill:none;stroke:#0064ff;stroke-width:1.72500000000000010;stroke-linecap:round;stroke-linejoin:round;stroke-miterlimit:10;stroke-opacity:1;stroke-dasharray:none"
           d="m 179.52673,536.92585 4.82993,-3.0029 4.82993,-2.58649 4.82993,-8.09081 4.82994,-12.59515 4.82991,-7.67441 4.82994,3.58646 4.82992,10.34399 4.82994,6.00579 4.89204,-1.25121 4.82994,-1.58553 4.82993,7.50724 4.82992,23.85703 4.82994,35.03361 4.83007,26.1084 4.82993,-1.66842 4.82992,-31.86394 4.82994,-47.46281 4.82992,-37.78646 4.89161,-13.2628 4.82993,-0.75073 4.82993,-1.6676 4.82993,-2.50243 4.82994,-7.42416 4.82992,-13.34588 4.82993,-8.25796 4.82993,5.83863 4.82993,14.43093 4.82993,13.01256 4.8916,7.257 4.82993,5.58839 4.82993,7.50725 4.82993,-0.41741 4.82993,-14.17969 4.82994,-14.514 4.82991,0.41641 4.82994,18.3517 4.82993,22.85506 4.82993,6.4232 4.89234,-10.59423 4.82994,-10.34298 4.82992,1.33429"
           id="path5007"
           inkscape:connector-curvature="0" />
        <path
           style="opacity:0.50000000000000000;fill:none;stroke:#0064ff;stroke-width:1.72500000000000010;stroke-linecap:round;stroke-linejoin:round;stroke-miterlimit:10;stroke-opacity:1;stroke-dasharray:none"
           d="m 179.52673,516.90654 4.82993,-6.17297 4.82993,6.50628 4.82993,6.42321 4.82994,-3.0029 4.82991,-4.92175 4.82994,1.58453 4.82992,7.00675 4.82994,5.25509 4.89204,-3.41932 4.82994,-7.34107 4.82993,4.25411 4.82992,25.1913 4.82994,36.11806 4.83007,22.85566 4.82993,-7.67421 4.82992,-29.69566 4.82994,-30.36231 4.82992,-19.26859 4.89161,-11.59418 4.82993,-12.67923 4.82993,-16.84927 4.82993,-15.09857 4.82994,-5.58839 4.82992,3.17006 4.82993,1.75168 4.82993,-5.0889 4.82993,-5.92172 4.82993,0.58356 4.8916,8.34105 4.82993,15.43189 4.82993,12.09467 4.82993,-7.00675 4.82993,-16.2657 4.82994,0.33432 4.82991,20.77005 4.82994,20.60287 4.82993,6.75653 4.82993,-0.33333 4.89234,-0.58456 4.82994,1.50146 4.82992,10.84445"
           id="path5005"
           inkscape:connector-curvature="0" />
        <path
           style="opacity:0.50000000000000000;fill:none;stroke:#0064ff;stroke-width:1.72500000000000010;stroke-linecap:round;stroke-linejoin:round;stroke-miterlimit:10;stroke-opacity:1;stroke-dasharray:none"
           d="m 179.52673,524.32969 4.82993,-3.25312 4.82993,-1.91786 4.82993,-3.33723 4.82994,-2.58549 4.82991,0.58356 4.82994,4.00387 4.82992,8.67537 4.82994,7.75749 4.89204,-0.0831 4.82994,-3.42029 4.82993,8.42513 4.82992,32.28114 4.82994,38.11979 4.83007,6.08908 4.82993,-32.61467 4.82992,-44.62607 4.82994,-35.28405 4.82992,-19.51884 4.89161,-3.33722 4.82993,0.33433 4.82993,-7.34109 4.82993,-10.6763 4.82994,-9.25894 4.82992,-4.75458 4.82993,6.4222 4.82993,19.85315 4.82993,19.35168 4.82993,0.16716 4.8916,-11.01063 4.82993,0.66664 4.82993,12.34592 4.82993,7.6734 4.82993,-3.50338 4.82994,-7.75748 4.82991,-1.08405 4.82994,10.09274 4.82993,16.09954 4.82993,9.50917 4.89234,-1.66861 4.82994,-4.6715 4.82992,-3.33622"
           id="path5003"
           inkscape:connector-curvature="0" />
        <path
           style="opacity:0.50000000000000000;fill:none;stroke:#0064ff;stroke-width:1.72500000000000010;stroke-linecap:round;stroke-linejoin:round;stroke-miterlimit:10;stroke-opacity:1;stroke-dasharray:none"
           d="m 179.52673,514.2369 4.82993,8.84154 4.82993,-0.0831 4.82993,-9.25894 4.82994,-5.75555 4.82991,8.25796 4.82994,18.18456 4.82992,15.34781 4.82994,0.8338 4.89204,-12.428 4.82994,-10.17682 4.82993,3.92079 4.82992,19.76908 4.82994,29.27805 4.83007,21.35381 4.82993,-0.41721 4.82992,-18.10065 4.82994,-24.69084 4.82992,-24.85698 4.89161,-22.10433 4.82993,-17.43383 4.82993,-16.51594 4.82993,-18.26763 4.82994,-11.0937 4.82992,3.08598 4.82993,4.50434 4.82993,-6.75652 4.82993,-8.67537 4.82993,-1.16713 4.8916,0.50048 4.82993,1.50145 4.82993,10.25991 4.82993,18.01739 4.82993,13.67919 4.82994,3.33722 4.82991,0.83381 4.82994,4.67151 4.82993,5.42123 4.82993,4.92175 4.89234,10.59322 4.82994,17.93431 4.82992,15.01449"
           id="path5001"
           inkscape:connector-curvature="0" />
        <path
           style="opacity:0.50000000000000000;fill:none;stroke:#0064ff;stroke-width:1.72500000000000010;stroke-linecap:round;stroke-linejoin:round;stroke-miterlimit:10;stroke-opacity:1;stroke-dasharray:none"
           d="m 179.52673,527.08225 4.82993,-6.50628 4.82993,-9.25894 4.82993,-5.25507 4.82994,2.75267 4.82991,6.67343 4.82994,5.00484 4.82992,3.08597 4.82994,-0.33332 4.89204,-4.50435 4.82994,1.16814 4.82993,18.85118 4.82992,32.9488 4.82994,29.52829 4.83007,4.83788 4.82993,-26.60869 4.82992,-34.11692 4.82994,-18.76811 4.82992,-8.5082 4.89161,-10.25992 4.82993,-17.01641 4.82993,-24.77392 4.82993,-23.10529 4.82994,-1.83477 4.82992,23.43862 4.82993,24.02319 4.82993,1.91884 4.82993,-17.76714 4.82993,-19.51884 4.8916,-3.8367 4.82993,14.26377 4.82993,20.1024 4.82993,9.84249 4.82993,-8.67437 4.82994,-10.76038 4.82991,8.00772 4.82994,21.60385 4.82993,18.18456 4.82993,3.50337 4.89234,-9.50918 4.82994,-5.33915 4.82992,10.17682"
           id="path4999"
           inkscape:connector-curvature="0" />
        <path
           style="opacity:0.50000000000000000;fill:none;stroke:#0064ff;stroke-width:1.72500000000000010;stroke-linecap:round;stroke-linejoin:round;stroke-miterlimit:10;stroke-opacity:1;stroke-dasharray:none"
           d="m 179.52673,514.98757 4.82993,6.75653 4.82993,16.59903 4.82993,16.6 4.82994,-4.83866 4.82991,-18.68403 4.82994,-12.01159 4.82992,1.33428 4.82994,12.429 4.89204,12.428 4.82994,-0.33333 4.82993,-4.33718 4.82992,13.26279 4.82994,30.86278 4.83007,23.27247 4.82993,-1.58473 4.82992,-22.77198 4.82994,-31.94763 4.82992,-27.69373 4.89161,-15.34781 4.82993,-6.92368 4.82993,-8.9246 4.82993,-11.76136 4.82994,-7.42416 4.82992,-4.83767 4.82993,-7.00677 4.82993,-7.257 4.82993,-5.50531 4.82993,-3.50338 4.8916,1.41737 4.82993,12.59615 4.82993,22.35457 4.82993,15.09758 4.82993,-4.08695 4.82994,-9.50917 4.82991,3.25313 4.82994,11.76136 4.82993,7.50724 4.82993,0.58356 4.89234,-4.2541 4.82994,-3.75363 4.82992,6.42321"
           id="path4997"
           inkscape:connector-curvature="0" />
        <path
           style="opacity:0.50000000000000000;fill:none;stroke:#0064ff;stroke-width:1.72500000000000010;stroke-linecap:round;stroke-linejoin:round;stroke-miterlimit:10;stroke-opacity:1;stroke-dasharray:none"
           d="m 179.52673,506.72962 4.82993,10.67729 4.82993,8.17389 4.82993,4.33819 4.82994,5.5884 4.82991,4.33718 4.82994,-0.083 4.82992,0.41741 4.82994,4.17002 4.89204,-0.91689 4.82994,-7.34108 4.82993,3.25313 4.82992,21.68794 4.82994,26.44231 4.83007,15.26473 4.82993,-6.75652 4.82992,-29.1119 4.82994,-33.53235 4.82992,-19.60192 4.89161,-6.75652 4.82993,-9.34201 4.82993,-20.01932 4.82993,-21.43769 4.82994,-12.59515 4.82992,-3.33722 4.82993,2.16909 4.82993,5.33815 4.82993,8.42513 4.82993,6.58936 4.8916,4.50434 4.82993,9.59327 4.82993,6.58935 4.82993,-4.08694 4.82993,-3.4203 4.82994,3.33623 4.82991,6.67343 4.82994,12.59515 4.82993,16.43286 4.82993,7.50725 4.89234,-6.50628 4.82994,-9.75942 4.82992,-1.08405"
           id="path4993"
           inkscape:connector-curvature="0" />
        <path
           style="opacity:0.50000000000000000;fill:none;stroke:#0064ff;stroke-width:1.72500000000000010;stroke-linecap:round;stroke-linejoin:round;stroke-miterlimit:10;stroke-opacity:1;stroke-dasharray:none"
           d="m 179.52673,539.59437 4.82993,10.09374 4.82993,-6.50628 4.82993,-15.51498 4.82994,-12.51207 4.82991,-1.58553 4.82994,6.8406 4.82992,5.08792 4.82994,0.083 4.89204,1.00097 4.82994,6.75652 4.82993,19.76907 4.82992,35.86841 4.82994,33.11517 4.83007,5.17179 4.82993,-23.43943 4.82992,-33.03186 4.82994,-31.86375 4.82992,-29.27826 4.89161,-19.35268 4.82993,-7.08984 4.82993,-5.00483 4.82993,-12.8454 4.82994,-17.10049 4.82992,-6.83961 4.82993,5.08791 4.82993,4.42127 4.82993,0.8338 4.82993,10.09374 4.8916,20.93621 4.82993,10.2599 4.82993,-12.0116 4.82993,-15.76521 4.82993,2.08602 4.82994,15.18064 4.82991,9.09278 4.82994,1.66761 4.82993,2.41933 4.82993,0.58356 4.89234,2.25218 4.82994,10.00966 4.82992,9.17586"
           id="path4991"
           inkscape:connector-curvature="0" />
        <path
           style="opacity:0.50000000000000000;fill:none;stroke:#0064ff;stroke-width:1.72500000000000010;stroke-linecap:round;stroke-linejoin:round;stroke-miterlimit:10;stroke-opacity:1;stroke-dasharray:none"
           d="m 179.52673,502.4755 4.82993,3.50339 4.82993,4.58742 4.82993,7.75749 4.82994,10.2599 4.82991,7.00676 4.82994,-1.41737 4.82992,-5.75554 4.82994,-0.0841 4.89204,4.58842 4.82994,5.08792 4.82993,14.68117 4.82992,28.61061 4.82994,26.52559 4.83007,2.08521 4.82993,-27.35959 4.82992,-40.62221 4.82994,-31.44734 4.82992,-11.5942 4.89161,3.33622 4.82993,0.16717 4.82993,-16.2657 4.82993,-20.10341 4.82994,-7.17292 4.82992,2.50242 4.82993,4.58743 4.82993,2.91982 4.82993,0.25024 4.82993,-1.16812 4.8916,-4.33719 4.82993,-1.83577 4.82993,11.0947 4.82993,14.26377 4.82993,1.75169 4.82994,-4.58843 4.82991,3.8377 4.82994,9.17486 4.82993,5.08891 4.82993,7.75748 4.89234,18.76811 4.82994,18.8512 4.82992,3.8367"
           id="path4989"
           inkscape:connector-curvature="0" />
        <path
           style="opacity:0.50000000000000000;fill:none;stroke:#0064ff;stroke-width:1.72500000000000010;stroke-linecap:round;stroke-linejoin:round;stroke-miterlimit:10;stroke-opacity:1;stroke-dasharray:none"
           d="m 179.52673,526.49871 4.82993,-3.50338 4.82993,-8.5913 4.82993,-0.75072 4.82994,7.42317 4.82991,1.6686 4.82994,-5.58839 4.82992,1.58453 4.82994,12.92948 4.89204,6.75652 4.82994,-6.67344 4.82993,-1.33429 4.82992,21.77102 4.82994,36.7016 4.83007,21.27054 4.82993,-12.92888 4.82992,-32.61527 4.82994,-33.94876 4.82992,-30.77971 4.89161,-22.93914 4.82993,-13.01255 4.82993,-4.33718 4.82993,0.25023 4.82994,-3.92079 4.82992,-3.58646 4.82993,6.25605 4.82993,9.50918 4.82993,2.5024 4.82993,-3.75361 4.8916,-3.0029 4.82993,2.91881 4.82993,2.91981 4.82993,-8.67536 4.82993,-9.25893 4.82994,13.01255 4.82991,27.86089 4.82994,21.18644 4.82993,9.75942 4.82993,-3.33622 4.89234,-11.42802 4.82994,-0.25025 4.82992,14.59809"
           id="path4987"
           inkscape:connector-curvature="0" />
        <path
           style="opacity:0.50000000000000000;fill:none;stroke:#0064ff;stroke-width:1.72500000000000010;stroke-linecap:round;stroke-linejoin:round;stroke-miterlimit:10;stroke-opacity:1;stroke-dasharray:none"
           d="m 179.52673,499.22238 4.82993,18.68504 4.82993,18.35071 4.82993,1.83476 4.82994,-12.84539 4.82991,-5.5884 4.82994,8.09082 4.82992,12.3449 4.82994,10.84448 4.89204,6.33911 4.82994,-1.16813 4.82993,-2.50241 4.82992,13.51305 4.82994,31.53062 4.83007,17.68386 4.82993,-21.18724 4.82992,-42.12385 4.82994,-34.95072 4.82992,-21.77103 4.89161,-11.5111 4.82993,-4.00386 4.82993,-3.16906 4.82993,-6.8406 4.82994,-8.92462 4.82992,-8.17488 4.82993,-5.75556 4.82993,-0.25023 4.82993,4.92174 4.82993,3.8367 4.8916,3.25314 4.82993,8.92562 4.82993,12.92847 4.82993,9.75942 4.82993,5.33915 4.82994,3.16906 4.82991,-0.91689 4.82994,-2.08601 4.82993,2.25218 4.82993,5.92271 4.89234,10.09274 4.82994,12.429 4.82992,7.257"
           id="path4985"
           inkscape:connector-curvature="0" />
        <path
           style="opacity:0.50000000000000000;fill:none;stroke:#0064ff;stroke-width:1.72500000000000010;stroke-linecap:round;stroke-linejoin:round;stroke-miterlimit:10;stroke-opacity:1;stroke-dasharray:none"
           d="m 179.52673,521.74412 4.82993,8.25797 4.82993,12.76232 4.82993,3.67054 4.82994,-11.5111 4.82991,-12.0116 4.82994,2.00193 4.82992,10.84346 4.82994,5.83864 4.89204,-8.67438 4.82994,-14.93141 4.82993,5.75556 4.82992,36.20194 4.82994,40.53892 4.83007,11.42742 4.82993,-26.27535 4.82992,-41.70645 4.82994,-29.44541 4.82992,-10.09274 4.89161,-0.4174 4.82993,-4.08695 4.82993,-15.09857 4.82993,-17.51691 4.82994,-6.58935 4.82992,4.33719 4.82993,3.67054 4.82993,-3.33623 4.82993,-3.25314 4.82993,3.25314 4.8916,4.33718 4.82993,-0.66763 4.82993,1.41837 4.82993,12.09466 4.82993,9.50918 4.82994,-3.83669 4.82991,-3.08599 4.82994,8.5913 4.82993,13.93044 4.82993,9.00869 4.89234,1.25121 4.82994,-1.75169 4.82992,2.00193"
           id="path4983"
           inkscape:connector-curvature="0" />
        <path
           style="opacity:0.50000000000000000;fill:none;stroke:#0064ff;stroke-width:1.72500000000000010;stroke-linecap:round;stroke-linejoin:round;stroke-miterlimit:10;stroke-opacity:1;stroke-dasharray:none"
           d="m 179.52673,501.47456 4.82993,8.5913 4.82993,5.25507 4.82993,-2.08502 4.82994,-3.8367 4.82991,2.08501 4.82994,10.42707 4.82992,14.26375 4.82994,9.0087 4.89204,2.08501 4.82994,-1.00096 4.82993,2.75264 4.82992,15.84831 4.82994,26.77604 4.83007,19.26859 4.82993,-4.00387 4.82992,-25.69119 4.82994,-35.61816 4.82992,-34.53333 4.89161,-26.60868 4.82993,-15.51498 4.82993,-6.75651 4.82993,-3.8367 4.82994,-1.41837 4.82992,1.16812 4.82993,-4.75459 4.82993,-9.84349 4.82993,4.58842 4.82993,18.18356 4.8916,7.34108 4.82993,-4.75459 4.82993,-0.58456 4.82993,3.67053 4.82993,1.33429 4.82994,1.83578 4.82991,7.75748 4.82994,11.26086 4.82993,9.34202 4.82993,5.17199 4.89234,2.00193 4.82994,7.84057 4.82992,16.6831"
           id="path4981"
           inkscape:connector-curvature="0" />
        <path
           style="opacity:0.50000000000000000;fill:none;stroke:#0064ff;stroke-width:1.72500000000000010;stroke-linecap:round;stroke-linejoin:round;stroke-miterlimit:10;stroke-opacity:1;stroke-dasharray:none"
           d="m 179.52673,519.99243 4.82993,-4.17103 4.82993,-2.50241 4.82993,0.0841 4.82994,5.5053 4.82991,11.34395 4.82994,11.92852 4.82992,3.50338 4.82994,-6.4232 4.89204,-15.01449 4.82994,-14.34685 4.82993,11.59418 4.82992,40.87245 4.82994,36.20193 4.83007,6.423 4.82993,-16.26569 4.82992,-23.68966 4.82994,-27.44349 4.82992,-27.44248 4.89161,-15.68213 4.82993,-4.92175 4.82993,-7.75749 4.82993,-14.26376 4.82994,-15.51497 4.82992,-7.257 4.82993,8.59228 4.82993,15.76522 4.82993,4.42027 4.82993,-8.00774 4.8916,-1.75168 4.82993,8.25796 4.82993,3.0029 4.82993,-7.08983 4.82993,-6.25605 4.82994,9.25894 4.82991,24.85699 4.82994,21.10437 4.82993,1.91785 4.82993,-10.09275 4.89234,-3.92079 4.82994,6.08989 4.82992,5.50531"
           id="path4979"
           inkscape:connector-curvature="0" />
        <path
           style="opacity:0.50000000000000000;fill:none;stroke:#0064ff;stroke-width:1.72500000000000010;stroke-linecap:round;stroke-linejoin:round;stroke-miterlimit:10;stroke-opacity:1;stroke-dasharray:none"
           d="m 179.52673,504.47743 4.82993,-1.33428 4.82993,10.00965 4.82993,10.59323 4.82994,9.34202 4.82991,11.76135 4.82994,6.8406 4.82992,-7.34108 4.82994,-16.2657 4.89204,-10.42606 4.82994,3.58646 4.82993,17.43382 4.82992,31.11302 4.82994,34.70029 4.83007,12.26184 4.82993,-26.85952 4.82992,-47.12868 4.82994,-32.44831 4.82992,-8.84154 4.89161,-4.50435 4.82993,-10.09274 4.82993,-9.75942 4.82993,-7.92464 4.82994,-8.25797 4.82992,-6.08888 4.82993,1.25121 4.82993,9.67534 4.82993,5.42223 4.82993,-10.6773 4.8916,-9.25893 4.82993,12.01158 4.82993,12.26184 4.82993,-5.83865 4.82993,-5.00482 4.82994,10.92754 4.82991,14.42994 4.82994,0.66763 4.82993,-8.00773 4.82993,4.58744 4.89234,16.76617 4.82994,9.67634 4.82992,5.5884"
           id="path4977"
           inkscape:connector-curvature="0" />
        <path
           style="opacity:0.50000000000000000;fill:none;stroke:#0064ff;stroke-width:1.72500000000000010;stroke-linecap:round;stroke-linejoin:round;stroke-miterlimit:10;stroke-opacity:1;stroke-dasharray:none"
           d="m 179.52673,527.66681 4.82993,2.83574 4.82993,0.16717 4.82993,2.00192 4.82994,4.42027 4.82991,7.25701 4.82994,2.66957 4.82992,-7.67441 4.82994,-4.17002 4.89204,7.50724 4.82994,7.75749 4.82993,7.67341 4.82992,20.1034 4.82994,25.02394 4.83007,4.42067 4.82993,-21.43709 4.82992,-26.85971 4.82994,-18.51788 4.82992,-17.5169 4.89161,-22.6879 4.82993,-19.93623 4.82993,-15.26474 4.82993,-17.76713 4.82994,-16.01547 4.82992,-2.66957 4.82993,7.84157 4.82993,6.58935 4.82993,6.33912 4.82993,10.92755 4.8916,8.00773 4.82993,2.91982 4.82993,3.41929 4.82993,1.00096 4.82993,0.16716 4.82994,6.67345 4.82991,9.67534 4.82994,7.00675 4.82993,2.5865 4.82993,1.25121 4.89234,4.33718 4.82994,3.33623 4.82992,-3.25315"
           id="path4975"
           inkscape:connector-curvature="0" />
        <path
           style="opacity:0.50000000000000000;fill:none;stroke:#0064ff;stroke-width:1.72500000000000010;stroke-linecap:round;stroke-linejoin:round;stroke-miterlimit:10;stroke-opacity:1;stroke-dasharray:none"
           d="m 179.52673,522.1615 4.82993,0.41641 4.82993,0.50048 4.82993,3.0029 4.82994,-1.08405 4.82991,-2.41933 4.82994,4.6715 4.82992,9.75942 4.82994,6.58936 4.89204,-1.50145 4.82994,-5.42123 4.82993,4.83767 4.82992,25.94203 4.82994,29.19437 4.83007,1.91865 4.82993,-24.3565 4.82992,-27.19324 4.82994,-22.52174 4.82992,-26.27535 4.89161,-26.69275 4.82993,-11.5942 4.82993,2.75266 4.82993,0.16716 4.82994,-5.83964 4.82992,-0.41639 4.82993,6.67243 4.82993,4.92175 4.82993,0.75072 4.82993,-2.50241 4.8916,-5.92271 4.82993,-2.41834 4.82993,6.58936 4.82993,13.34588 4.82993,13.51304 4.82994,6.92368 4.82991,5.25507 4.82994,12.429 4.82993,10.42606 4.82993,-3.58646 4.89234,-8.00774 4.82994,3.83672 4.82992,14.59808"
           id="path3612"
           inkscape:connector-curvature="0" />
        <rect
           style="fill:url(#linearGradient6690);fill-opacity:1;stroke:none"
           id="rect5125"
           width="94.158051"
           height="93.688324"
           x="-271.39377"
           y="-573.67932"
           transform="scale(-1,-1)" />
        <rect
           style="fill:url(#linearGradient6687);fill-opacity:1;stroke:none"
           id="rect5125-2"
           width="101.87103"
           height="123.25939"
           x="278.93613"
           y="429.9595" />
        <path
           style="fill:#d60000;fill-opacity:1;stroke:#000000;stroke-width:1.04955029"
           d="m 275.75489,576.54412 c -13.45134,-0.47686 -26.92743,0.031 -40.36884,-0.50795 -0.17656,-3.91308 3.61774,-10.47968 7.68275,-8.84009 12.53388,-0.13905 25.08334,0.17577 37.607,0.0658 2.44556,0.2068 3.55387,-3.82009 0.28819,-2.68695 -11.84456,-0.33251 -23.71714,0.16413 -35.54562,-0.49745 -2.61744,-5.65393 3.43575,-10.86199 5.58363,-15.49131 4.0466,-6.0741 10.78068,-4.11393 16.2467,-4.51227 14.42307,0.20733 28.85798,-0.31735 43.27317,0.29313 1.22655,2.0528 -2.55045,7.77783 -4.58397,8.64923 -11.30454,0.12017 -22.62348,-0.17238 -33.91641,0.32135 -1.22879,2.8981 5.06628,0.66694 6.93966,1.36713 7.41002,0.19602 14.8814,-0.36866 22.25289,0.38877 5.88176,2.1565 -0.46722,10.02493 0.0626,12.40642 11.23187,-0.003 22.48062,0.12809 33.70174,-0.48076 2.54379,-0.40413 3.73209,-4.02294 0.18868,-2.73778 -8.98926,-0.084 -17.98275,0.28452 -26.96924,0.0308 -4.91249,-1.18228 -2.75192,-8.85716 -0.0214,-11.54443 2.59905,-4.91899 6.44291,-9.70589 11.4611,-8.80512 14.39875,-0.11287 28.80269,-0.23472 43.19912,0.11057 2.6636,0.95885 -1.17444,7.86398 -3.1233,8.40699 -10.84873,0.61504 -21.75644,-0.0161 -32.62272,0.41888 -2.4942,3.2308 6.03062,1.03302 8.38179,1.67269 6.22127,0.0666 12.47463,-0.18177 18.6792,0.0293 2.77261,0.11923 5.12148,3.96183 3.13487,6.59382 -1.70569,4.06301 -3.53773,6.85967 -5.10727,10.16622 -2.06056,3.74791 -6.30755,5.11912 -10.05608,4.6436 -22.12038,0.46729 -44.24538,0.58614 -66.36811,0.53931 z"
           id="path5941"
           inkscape:connector-curvature="0" />
      </g>
      <flowRoot
         transform="matrix(25.305736,0,0,25.305736,9940.4586,-8069.0861)"
         style="font-size:40px;font-style:normal;font-weight:normal;line-height:125%;letter-spacing:0px;word-spacing:0px;fill:#666666;fill-opacity:1;stroke:none;font-family:Sans"
         id="flowRoot5169-4-7"
         xml:space="preserve"><flowRegion
           id="flowRegion5171-5-1"><rect
             style="fill:#666666"
             y="316.64789"
             x="-354.28571"
             height="215.71428"
             width="182.85715"
             id="rect5173-5-1" /></flowRegion><flowPara
           style="font-style:normal;font-variant:normal;font-weight:900;font-stretch:normal;fill:#666666;font-family:Blackoak Std;-inkscape-font-specification:Blackoak Std Heavy"
           id="flowPara5175-1-5" /></flowRoot>    </g>
  </g>
</svg>
